<svg xmlns="http://www.w3.org/2000/svg" xmlns:xlink="http://www.w3.org/1999/xlink" width="1920" zoomAndPan="magnify" viewBox="0 0 1440 809.999993" height="1080" preserveAspectRatio="xMidYMid meet" version="1.0"><defs><clipPath id="a3f693d72e"><path d="M 112.085938 31.085938 L 859.835938 31.085938 L 859.835938 778.835938 L 112.085938 778.835938 Z M 112.085938 31.085938 " clip-rule="nonzero"/></clipPath></defs><path fill="#ffffff" d="M 478.691406 412.226562 L 493.226562 412.226562 L 493.226562 397.699219 L 478.691406 397.699219 Z M 499.671875 418.671875 L 472.25 418.671875 L 472.25 391.25 L 499.671875 391.25 L 499.671875 418.671875 " fill-opacity="1" fill-rule="nonzero"/><path fill="#ffffff" d="M 862.179688 33.195312 L 857.71875 28.738281 L 630.035156 256.421875 L 634.496094 260.878906 L 862.179688 33.195312 " fill-opacity="1" fill-rule="nonzero"/><path fill="#ffffff" d="M 633.339844 547.867188 L 628.867188 552.347656 L 857.710938 781.195312 L 862.195312 776.710938 L 633.339844 547.867188 " fill-opacity="1" fill-rule="nonzero"/><path fill="#ffffff" d="M 109.722656 776.710938 L 114.203125 781.195312 L 343.058594 552.347656 L 338.574219 547.867188 L 109.722656 776.710938 " fill-opacity="1" fill-rule="nonzero"/><path fill="#ffffff" d="M 716.082031 622.195312 C 769.671875 565.460938 802.582031 488.980469 802.582031 404.957031 C 802.582031 320.933594 769.664062 244.457031 716.074219 187.714844 L 710.59375 193.195312 C 762.789062 248.527344 794.832031 323.070312 794.832031 404.957031 C 794.832031 486.847656 762.789062 561.382812 710.601562 616.722656 Z M 268.722656 635.082031 C 325.464844 688.671875 401.933594 721.582031 485.957031 721.582031 C 569.980469 721.582031 646.453125 688.671875 703.195312 635.082031 L 697.714844 629.609375 C 642.382812 681.796875 567.847656 713.832031 485.957031 713.832031 C 404.070312 713.832031 329.535156 681.796875 274.203125 629.609375 Z M 255.84375 187.714844 C 202.253906 244.457031 169.335938 320.933594 169.335938 404.957031 C 169.335938 488.980469 202.246094 565.460938 255.835938 622.195312 L 261.316406 616.714844 C 209.125 561.382812 177.082031 486.847656 177.082031 404.957031 C 177.082031 323.070312 209.125 248.535156 261.324219 193.195312 Z M 485.957031 9.90625 C 591.609375 9.90625 687.707031 51.601562 758.664062 119.394531 L 765.667969 112.390625 C 692.914062 42.808594 594.339844 0 485.957031 0 C 377.578125 0 279.007812 42.800781 206.253906 112.390625 L 213.257812 119.386719 C 284.21875 51.601562 380.308594 9.90625 485.957031 9.90625 Z M 485.957031 800.015625 C 380.316406 800.015625 284.226562 758.332031 213.265625 690.542969 L 206.261719 697.542969 C 279.015625 767.121094 377.585938 809.925781 485.957031 809.925781 C 594.339844 809.925781 692.898438 767.121094 765.652344 697.542969 L 758.648438 690.542969 C 687.699219 758.332031 591.609375 800.015625 485.957031 800.015625 Z M 200.386719 132.257812 L 193.382812 125.261719 C 123.800781 198.007812 81 296.578125 81 404.957031 C 81 513.339844 123.800781 611.90625 193.375 684.652344 L 200.378906 677.65625 C 132.59375 606.699219 90.90625 510.609375 90.90625 404.957031 C 90.90625 299.308594 132.59375 203.21875 200.386719 132.257812 Z M 778.527344 125.253906 L 771.527344 132.25 C 839.324219 203.210938 881.007812 299.308594 881.007812 404.957031 C 881.007812 510.609375 839.324219 606.699219 771.535156 677.65625 L 778.542969 684.652344 C 848.113281 611.90625 890.917969 513.339844 890.917969 404.957031 C 890.917969 296.578125 848.113281 198.007812 778.527344 125.253906 Z M 485.957031 88.34375 C 401.933594 88.34375 325.457031 121.253906 268.714844 174.84375 L 274.195312 180.324219 C 329.527344 128.132812 404.070312 96.082031 485.957031 96.082031 C 567.855469 96.082031 642.390625 128.132812 697.730469 180.332031 L 703.207031 174.851562 C 646.46875 121.253906 569.988281 88.34375 485.957031 88.34375 Z M 641.136719 547.25 C 675.554688 509.742188 696.597656 459.765625 696.597656 404.957031 C 696.597656 350.152344 675.546875 300.175781 641.121094 262.660156 L 637.472656 266.304688 C 670.972656 302.878906 691.445312 351.578125 691.445312 404.957031 C 691.445312 458.339844 670.980469 507.03125 637.488281 543.601562 Z M 330.796875 262.667969 C 296.371094 300.175781 275.316406 350.152344 275.316406 404.957031 C 275.316406 459.765625 296.363281 509.742188 330.789062 547.25 L 334.425781 543.601562 C 300.9375 507.03125 280.472656 458.339844 280.472656 404.957031 C 280.472656 351.578125 300.945312 302.882812 334.433594 266.3125 Z M 485.957031 610.445312 C 432.578125 610.445312 383.890625 589.980469 347.3125 556.488281 L 343.675781 560.136719 C 381.183594 594.554688 431.160156 615.597656 485.957031 615.597656 C 540.765625 615.597656 590.742188 594.554688 628.25 560.136719 L 624.601562 556.488281 C 588.03125 589.980469 539.339844 610.445312 485.957031 610.445312 Z M 485.957031 194.324219 C 431.152344 194.324219 381.175781 215.371094 343.660156 249.796875 L 347.304688 253.441406 C 383.882812 219.945312 432.578125 199.472656 485.957031 199.472656 C 539.347656 199.472656 588.039062 219.945312 624.609375 253.441406 L 628.257812 249.796875 C 590.75 215.371094 540.765625 194.324219 485.957031 194.324219 " fill-opacity="1" fill-rule="nonzero"/><path fill="#ffffff" d="M 342.207031 256.746094 L 114.195312 28.738281 L 109.738281 33.203125 L 337.746094 261.214844 L 342.207031 256.746094 " fill-opacity="1" fill-rule="nonzero"/><path fill="#ffffff" d="M 485.957031 389.835938 C 485.410156 389.835938 484.96875 389.386719 484.96875 388.84375 C 484.96875 388.292969 485.410156 387.851562 485.957031 387.851562 C 486.507812 387.851562 486.949219 388.292969 486.949219 388.84375 C 486.949219 389.386719 486.507812 389.835938 485.957031 389.835938 " fill-opacity="1" fill-rule="nonzero"/><path fill="#ffffff" d="M 485.957031 356.476562 C 484.558594 356.476562 483.425781 355.34375 483.425781 353.945312 C 483.425781 352.542969 484.558594 351.40625 485.957031 351.40625 C 487.359375 351.40625 488.496094 352.542969 488.496094 353.945312 C 488.496094 355.34375 487.359375 356.476562 485.957031 356.476562 " fill-opacity="1" fill-rule="nonzero"/><path fill="#ffffff" d="M 485.957031 322.960938 C 483.796875 322.960938 482.042969 321.203125 482.042969 319.046875 C 482.042969 316.878906 483.796875 315.128906 485.957031 315.128906 C 488.125 315.128906 489.875 316.878906 489.875 319.046875 C 489.875 321.203125 488.125 322.960938 485.957031 322.960938 " fill-opacity="1" fill-rule="nonzero"/><path fill="#ffffff" d="M 485.957031 289.394531 C 483.054688 289.394531 480.710938 287.042969 480.710938 284.144531 C 480.710938 281.242188 483.054688 278.898438 485.957031 278.898438 C 488.859375 278.898438 491.207031 281.242188 491.207031 284.144531 C 491.207031 287.042969 488.859375 289.394531 485.957031 289.394531 " fill-opacity="1" fill-rule="nonzero"/><path fill="#ffffff" d="M 485.957031 255.6875 C 482.40625 255.6875 479.519531 252.808594 479.519531 249.246094 C 479.519531 245.6875 482.40625 242.808594 485.957031 242.808594 C 489.519531 242.808594 492.398438 245.6875 492.398438 249.246094 C 492.398438 252.808594 489.519531 255.6875 485.957031 255.6875 " fill-opacity="1" fill-rule="nonzero"/><path fill="#ffffff" d="M 485.957031 221.785156 C 481.847656 221.785156 478.519531 218.457031 478.519531 214.347656 C 478.519531 210.238281 481.847656 206.910156 485.957031 206.910156 C 490.066406 206.910156 493.394531 210.238281 493.394531 214.347656 C 493.394531 218.457031 490.066406 221.785156 485.957031 221.785156 " fill-opacity="1" fill-rule="nonzero"/><path fill="#ffffff" d="M 485.957031 187.957031 C 481.261719 187.957031 477.453125 184.148438 477.453125 179.449219 C 477.453125 174.75 481.261719 170.941406 485.957031 170.941406 C 490.65625 170.941406 494.472656 174.75 494.472656 179.449219 C 494.472656 184.148438 490.65625 187.957031 485.957031 187.957031 " fill-opacity="1" fill-rule="nonzero"/><path fill="#ffffff" d="M 485.957031 154.496094 C 480.464844 154.496094 476.011719 150.046875 476.011719 144.550781 C 476.011719 139.054688 480.464844 134.605469 485.957031 134.605469 C 491.453125 134.605469 495.902344 139.054688 495.902344 144.550781 C 495.902344 150.046875 491.453125 154.496094 485.957031 154.496094 " fill-opacity="1" fill-rule="nonzero"/><path fill="#ffffff" d="M 485.957031 119.78125 C 480.363281 119.78125 475.828125 115.246094 475.828125 109.652344 C 475.828125 104.054688 480.363281 99.519531 485.957031 99.519531 C 491.554688 99.519531 496.089844 104.054688 496.089844 109.652344 C 496.089844 115.246094 491.554688 119.78125 485.957031 119.78125 " fill-opacity="1" fill-rule="nonzero"/><path fill="#ffffff" d="M 485.957031 83.367188 C 481.199219 83.367188 477.34375 79.511719 477.34375 74.75 C 477.34375 69.992188 481.199219 66.136719 485.957031 66.136719 C 490.71875 66.136719 494.574219 69.992188 494.574219 74.75 C 494.574219 79.511719 490.71875 83.367188 485.957031 83.367188 " fill-opacity="1" fill-rule="nonzero"/><path fill="#ffffff" d="M 485.957031 45.589844 C 482.792969 45.589844 480.222656 43.019531 480.222656 39.851562 C 480.222656 36.6875 482.792969 34.117188 485.957031 34.117188 C 489.125 34.117188 491.695312 36.6875 491.695312 39.851562 C 491.695312 43.019531 489.125 45.589844 485.957031 45.589844 " fill-opacity="1" fill-rule="nonzero"/><path fill="#ffffff" d="M 485.957031 5.945312 C 485.410156 5.945312 484.96875 5.503906 484.96875 4.953125 C 484.96875 4.410156 485.410156 3.960938 485.957031 3.960938 C 486.507812 3.960938 486.949219 4.410156 486.949219 4.953125 C 486.949219 5.503906 486.507812 5.945312 485.957031 5.945312 " fill-opacity="1" fill-rule="nonzero"/><path fill="#ffffff" d="M 502.082031 405.949219 C 501.53125 405.949219 501.089844 405.507812 501.089844 404.957031 C 501.089844 404.417969 501.53125 403.96875 502.082031 403.96875 C 502.621094 403.96875 503.070312 404.417969 503.070312 404.957031 C 503.070312 405.507812 502.621094 405.949219 502.082031 405.949219 " fill-opacity="1" fill-rule="nonzero"/><path fill="#ffffff" d="M 536.980469 407.496094 C 535.578125 407.496094 534.441406 406.359375 534.441406 404.957031 C 534.441406 403.566406 535.578125 402.425781 536.980469 402.425781 C 538.378906 402.425781 539.511719 403.566406 539.511719 404.957031 C 539.511719 406.359375 538.378906 407.496094 536.980469 407.496094 " fill-opacity="1" fill-rule="nonzero"/><path fill="#ffffff" d="M 571.878906 408.875 C 569.710938 408.875 567.960938 407.125 567.960938 404.957031 C 567.960938 402.796875 569.710938 401.042969 571.878906 401.042969 C 574.039062 401.042969 575.796875 402.796875 575.796875 404.957031 C 575.796875 407.125 574.039062 408.875 571.878906 408.875 " fill-opacity="1" fill-rule="nonzero"/><path fill="#ffffff" d="M 606.777344 410.214844 C 603.875 410.214844 601.523438 407.859375 601.523438 404.957031 C 601.523438 402.0625 603.875 399.710938 606.777344 399.710938 C 609.671875 399.710938 612.027344 402.0625 612.027344 404.957031 C 612.027344 407.859375 609.671875 410.214844 606.777344 410.214844 " fill-opacity="1" fill-rule="nonzero"/><path fill="#ffffff" d="M 641.675781 411.398438 C 638.117188 411.398438 635.238281 408.519531 635.238281 404.957031 C 635.238281 401.40625 638.117188 398.519531 641.675781 398.519531 C 645.230469 398.519531 648.117188 401.40625 648.117188 404.957031 C 648.117188 408.519531 645.230469 411.398438 641.675781 411.398438 " fill-opacity="1" fill-rule="nonzero"/><path fill="#ffffff" d="M 676.566406 412.402344 C 672.464844 412.402344 669.128906 409.066406 669.128906 404.957031 C 669.128906 400.855469 672.464844 397.519531 676.566406 397.519531 C 680.679688 397.519531 684.015625 400.855469 684.015625 404.957031 C 684.015625 409.066406 680.679688 412.402344 676.566406 412.402344 " fill-opacity="1" fill-rule="nonzero"/><path fill="#ffffff" d="M 711.46875 413.472656 C 706.769531 413.472656 702.960938 409.664062 702.960938 404.957031 C 702.960938 400.261719 706.769531 396.453125 711.46875 396.453125 C 716.171875 396.453125 719.980469 400.261719 719.980469 404.957031 C 719.980469 409.664062 716.171875 413.472656 711.46875 413.472656 " fill-opacity="1" fill-rule="nonzero"/><path fill="#ffffff" d="M 746.367188 414.902344 C 740.878906 414.902344 736.421875 410.453125 736.421875 404.957031 C 736.421875 399.46875 740.878906 395.011719 746.367188 395.011719 C 751.863281 395.011719 756.3125 399.46875 756.3125 404.957031 C 756.3125 410.453125 751.863281 414.902344 746.367188 414.902344 " fill-opacity="1" fill-rule="nonzero"/><path fill="#ffffff" d="M 781.265625 415.097656 C 775.667969 415.097656 771.132812 410.554688 771.132812 404.957031 C 771.132812 399.363281 775.667969 394.828125 781.265625 394.828125 C 786.863281 394.828125 791.40625 399.363281 791.40625 404.957031 C 791.40625 410.554688 786.863281 415.097656 781.265625 415.097656 " fill-opacity="1" fill-rule="nonzero"/><path fill="#ffffff" d="M 816.164062 413.582031 C 811.414062 413.582031 807.550781 409.71875 807.550781 404.957031 C 807.550781 400.207031 811.414062 396.34375 816.164062 396.34375 C 820.925781 396.34375 824.785156 400.207031 824.785156 404.957031 C 824.785156 409.71875 820.925781 413.582031 816.164062 413.582031 " fill-opacity="1" fill-rule="nonzero"/><path fill="#ffffff" d="M 851.0625 410.695312 C 847.898438 410.695312 845.328125 408.132812 845.328125 404.957031 C 845.328125 401.792969 847.898438 399.222656 851.0625 399.222656 C 854.230469 399.222656 856.800781 401.792969 856.800781 404.957031 C 856.800781 408.132812 854.230469 410.695312 851.0625 410.695312 " fill-opacity="1" fill-rule="nonzero"/><path fill="#ffffff" d="M 885.964844 405.949219 C 885.414062 405.949219 884.972656 405.507812 884.972656 404.957031 C 884.972656 404.417969 885.414062 403.96875 885.964844 403.96875 C 886.511719 403.96875 886.953125 404.417969 886.953125 404.957031 C 886.953125 405.507812 886.511719 405.949219 885.964844 405.949219 " fill-opacity="1" fill-rule="nonzero"/><path fill="#ffffff" d="M 485.957031 422.070312 C 485.410156 422.070312 484.96875 421.628906 484.96875 421.082031 C 484.96875 420.53125 485.410156 420.089844 485.957031 420.089844 C 486.507812 420.089844 486.949219 420.53125 486.949219 421.082031 C 486.949219 421.628906 486.507812 422.070312 485.957031 422.070312 " fill-opacity="1" fill-rule="nonzero"/><path fill="#ffffff" d="M 485.957031 458.511719 C 484.558594 458.511719 483.425781 457.378906 483.425781 455.980469 C 483.425781 454.578125 484.558594 453.441406 485.957031 453.441406 C 487.359375 453.441406 488.496094 454.578125 488.496094 455.980469 C 488.496094 457.378906 487.359375 458.511719 485.957031 458.511719 " fill-opacity="1" fill-rule="nonzero"/><path fill="#ffffff" d="M 485.957031 494.796875 C 483.796875 494.796875 482.042969 493.046875 482.042969 490.878906 C 482.042969 488.710938 483.796875 486.960938 485.957031 486.960938 C 488.125 486.960938 489.875 488.710938 489.875 490.878906 C 489.875 493.046875 488.125 494.796875 485.957031 494.796875 " fill-opacity="1" fill-rule="nonzero"/><path fill="#ffffff" d="M 485.957031 531.027344 C 483.054688 531.027344 480.710938 528.679688 480.710938 525.777344 C 480.710938 522.875 483.054688 520.523438 485.957031 520.523438 C 488.859375 520.523438 491.207031 522.875 491.207031 525.777344 C 491.207031 528.679688 488.859375 531.027344 485.957031 531.027344 " fill-opacity="1" fill-rule="nonzero"/><path fill="#ffffff" d="M 485.957031 567.117188 C 482.40625 567.117188 479.519531 564.230469 479.519531 560.675781 C 479.519531 557.117188 482.40625 554.238281 485.957031 554.238281 C 489.519531 554.238281 492.398438 557.117188 492.398438 560.675781 C 492.398438 564.230469 489.519531 567.117188 485.957031 567.117188 " fill-opacity="1" fill-rule="nonzero"/><path fill="#ffffff" d="M 485.957031 603.015625 C 481.847656 603.015625 478.519531 599.6875 478.519531 595.574219 C 478.519531 591.464844 481.847656 588.136719 485.957031 588.136719 C 490.066406 588.136719 493.394531 591.464844 493.394531 595.574219 C 493.394531 599.6875 490.066406 603.015625 485.957031 603.015625 " fill-opacity="1" fill-rule="nonzero"/><path fill="#ffffff" d="M 485.957031 638.980469 C 481.261719 638.980469 477.453125 635.171875 477.453125 630.476562 C 477.453125 625.769531 481.261719 621.960938 485.957031 621.960938 C 490.65625 621.960938 494.472656 625.769531 494.472656 630.476562 C 494.472656 635.171875 490.65625 638.980469 485.957031 638.980469 " fill-opacity="1" fill-rule="nonzero"/><path fill="#ffffff" d="M 485.957031 675.320312 C 480.464844 675.320312 476.011719 670.863281 476.011719 665.375 C 476.011719 659.878906 480.464844 655.429688 485.957031 655.429688 C 491.453125 655.429688 495.902344 659.878906 495.902344 665.375 C 495.902344 670.863281 491.453125 675.320312 485.957031 675.320312 " fill-opacity="1" fill-rule="nonzero"/><path fill="#ffffff" d="M 485.957031 710.40625 C 480.363281 710.40625 475.828125 705.871094 475.828125 700.273438 C 475.828125 694.675781 480.363281 690.132812 485.957031 690.132812 C 491.554688 690.132812 496.089844 694.675781 496.089844 700.273438 C 496.089844 705.871094 491.554688 710.40625 485.957031 710.40625 " fill-opacity="1" fill-rule="nonzero"/><path fill="#ffffff" d="M 485.957031 743.785156 C 481.199219 743.785156 477.34375 739.925781 477.34375 735.171875 C 477.34375 730.414062 481.199219 726.550781 485.957031 726.550781 C 490.71875 726.550781 494.574219 730.414062 494.574219 735.171875 C 494.574219 739.925781 490.71875 743.785156 485.957031 743.785156 " fill-opacity="1" fill-rule="nonzero"/><path fill="#ffffff" d="M 485.957031 775.800781 C 482.792969 775.800781 480.222656 773.238281 480.222656 770.070312 C 480.222656 766.898438 482.792969 764.335938 485.957031 764.335938 C 489.125 764.335938 491.695312 766.898438 491.695312 770.070312 C 491.695312 773.238281 489.125 775.800781 485.957031 775.800781 " fill-opacity="1" fill-rule="nonzero"/><path fill="#ffffff" d="M 485.957031 805.960938 C 485.410156 805.960938 484.96875 805.511719 484.96875 804.96875 C 484.96875 804.421875 485.410156 803.980469 485.957031 803.980469 C 486.507812 803.980469 486.949219 804.421875 486.949219 804.96875 C 486.949219 805.511719 486.507812 805.960938 485.957031 805.960938 " fill-opacity="1" fill-rule="nonzero"/><path fill="#ffffff" d="M 469.835938 405.949219 C 469.292969 405.949219 468.84375 405.507812 468.84375 404.957031 C 468.84375 404.417969 469.292969 403.96875 469.835938 403.96875 C 470.386719 403.96875 470.828125 404.417969 470.828125 404.957031 C 470.828125 405.507812 470.386719 405.949219 469.835938 405.949219 " fill-opacity="1" fill-rule="nonzero"/><path fill="#ffffff" d="M 434.945312 407.496094 C 433.542969 407.496094 432.40625 406.359375 432.40625 404.957031 C 432.40625 403.566406 433.542969 402.425781 434.945312 402.425781 C 436.335938 402.425781 437.476562 403.566406 437.476562 404.957031 C 437.476562 406.359375 436.335938 407.496094 434.945312 407.496094 " fill-opacity="1" fill-rule="nonzero"/><path fill="#ffffff" d="M 400.046875 408.875 C 397.878906 408.875 396.121094 407.125 396.121094 404.957031 C 396.121094 402.796875 397.878906 401.042969 400.046875 401.042969 C 402.203125 401.042969 403.960938 402.796875 403.960938 404.957031 C 403.960938 407.125 402.203125 408.875 400.046875 408.875 " fill-opacity="1" fill-rule="nonzero"/><path fill="#ffffff" d="M 365.144531 410.214844 C 362.242188 410.214844 359.890625 407.859375 359.890625 404.957031 C 359.890625 402.0625 362.242188 399.710938 365.144531 399.710938 C 368.042969 399.710938 370.394531 402.0625 370.394531 404.957031 C 370.394531 407.859375 368.042969 410.214844 365.144531 410.214844 " fill-opacity="1" fill-rule="nonzero"/><path fill="#ffffff" d="M 330.246094 411.398438 C 326.6875 411.398438 323.808594 408.519531 323.808594 404.957031 C 323.808594 401.40625 326.6875 398.519531 330.246094 398.519531 C 333.800781 398.519531 336.6875 401.40625 336.6875 404.957031 C 336.6875 408.519531 333.800781 411.398438 330.246094 411.398438 " fill-opacity="1" fill-rule="nonzero"/><path fill="#ffffff" d="M 295.347656 412.402344 C 291.238281 412.402344 287.910156 409.066406 287.910156 404.957031 C 287.910156 400.855469 291.238281 397.519531 295.347656 397.519531 C 299.457031 397.519531 302.785156 400.855469 302.785156 404.957031 C 302.785156 409.066406 299.457031 412.402344 295.347656 412.402344 " fill-opacity="1" fill-rule="nonzero"/><path fill="#ffffff" d="M 260.449219 413.472656 C 255.75 413.472656 251.933594 409.664062 251.933594 404.957031 C 251.933594 400.261719 255.75 396.453125 260.449219 396.453125 C 265.148438 396.453125 268.957031 400.261719 268.957031 404.957031 C 268.957031 409.664062 265.148438 413.472656 260.449219 413.472656 " fill-opacity="1" fill-rule="nonzero"/><path fill="#ffffff" d="M 225.550781 414.902344 C 220.054688 414.902344 215.605469 410.453125 215.605469 404.957031 C 215.605469 399.46875 220.054688 395.011719 225.550781 395.011719 C 231.039062 395.011719 235.496094 399.46875 235.496094 404.957031 C 235.496094 410.453125 231.039062 414.902344 225.550781 414.902344 " fill-opacity="1" fill-rule="nonzero"/><path fill="#ffffff" d="M 190.652344 415.097656 C 185.054688 415.097656 180.511719 410.554688 180.511719 404.957031 C 180.511719 399.363281 185.054688 394.828125 190.652344 394.828125 C 196.246094 394.828125 200.78125 399.363281 200.78125 404.957031 C 200.78125 410.554688 196.246094 415.097656 190.652344 415.097656 " fill-opacity="1" fill-rule="nonzero"/><path fill="#ffffff" d="M 155.75 413.582031 C 150.992188 413.582031 147.136719 409.71875 147.136719 404.957031 C 147.136719 400.207031 150.992188 396.34375 155.75 396.34375 C 160.511719 396.34375 164.367188 400.207031 164.367188 404.957031 C 164.367188 409.71875 160.511719 413.582031 155.75 413.582031 " fill-opacity="1" fill-rule="nonzero"/><path fill="#ffffff" d="M 120.851562 410.695312 C 117.6875 410.695312 115.117188 408.132812 115.117188 404.957031 C 115.117188 401.792969 117.6875 399.222656 120.851562 399.222656 C 124.019531 399.222656 126.589844 401.792969 126.589844 404.957031 C 126.589844 408.132812 124.019531 410.695312 120.851562 410.695312 " fill-opacity="1" fill-rule="nonzero"/><path fill="#ffffff" d="M 85.953125 405.949219 C 85.402344 405.949219 84.960938 405.507812 84.960938 404.957031 C 84.960938 404.417969 85.402344 403.96875 85.953125 403.96875 C 86.503906 403.96875 86.945312 404.417969 86.945312 404.957031 C 86.945312 405.507812 86.503906 405.949219 85.953125 405.949219 " fill-opacity="1" fill-rule="nonzero"/><g clip-path="url(#a3f693d72e)"><path fill="#ffffff" d="M 488.554688 747.710938 L 488.589844 738.539062 L 502.132812 738.539062 L 502.132812 736.882812 L 488.589844 736.882812 L 488.730469 697.402344 L 502.132812 697.402344 L 502.132812 695.742188 L 488.730469 695.742188 L 488.660156 656.277344 L 502.132812 656.277344 L 502.132812 654.617188 L 488.660156 654.617188 L 488.601562 615.152344 L 502.132812 615.152344 L 502.132812 613.492188 L 488.589844 613.492188 L 488.566406 595.289062 C 591.980469 593.886719 675.773438 510.03125 676.71875 406.738281 L 694.128906 406.761719 L 694.128906 420.28125 L 695.789062 420.28125 L 695.789062 406.773438 L 735.347656 406.832031 L 735.347656 420.28125 L 737.007812 420.28125 L 737.007812 406.832031 L 776.570312 406.902344 L 776.570312 420.28125 L 778.226562 420.28125 L 778.226562 406.902344 L 817.789062 406.761719 L 817.789062 420.28125 L 819.449219 420.28125 L 819.449219 406.761719 L 829.507812 406.726562 C 828.550781 594.074219 676.230469 746.308594 488.554688 747.710938 Z M 142.417969 406.726562 L 152.476562 406.761719 L 152.476562 420.28125 L 154.136719 420.28125 L 154.136719 406.761719 L 193.699219 406.902344 L 193.699219 420.28125 L 195.355469 420.28125 L 195.355469 406.902344 L 234.917969 406.832031 L 234.917969 420.28125 L 236.578125 420.28125 L 236.578125 406.832031 L 276.136719 406.773438 L 276.136719 420.28125 L 277.796875 420.28125 L 277.796875 406.761719 L 295.203125 406.738281 C 296.164062 510.582031 380.84375 594.820312 485.015625 595.324219 L 484.992188 613.492188 L 471.453125 613.492188 L 471.453125 615.152344 L 484.980469 615.152344 L 484.921875 654.617188 L 471.453125 654.617188 L 471.453125 656.277344 L 484.921875 656.277344 L 484.851562 695.742188 L 471.453125 695.742188 L 471.453125 697.402344 L 484.851562 697.402344 L 484.992188 736.882812 L 471.453125 736.882812 L 471.453125 738.539062 L 484.992188 738.539062 L 485.027344 747.746094 C 296.59375 747.246094 143.375 594.621094 142.417969 406.726562 Z M 485.027344 62.175781 L 484.992188 71.394531 L 471.453125 71.394531 L 471.453125 73.054688 L 484.992188 73.054688 L 484.851562 112.511719 L 471.453125 112.511719 L 471.453125 114.167969 L 484.851562 114.167969 L 484.921875 153.648438 L 471.453125 153.648438 L 471.453125 155.308594 L 484.921875 155.308594 L 484.980469 194.773438 L 471.453125 194.773438 L 471.453125 196.433594 L 484.992188 196.433594 L 485.015625 214.589844 C 380.84375 215.105469 296.164062 299.34375 295.203125 403.1875 L 277.796875 403.164062 L 277.796875 389.65625 L 276.136719 389.65625 L 276.136719 403.152344 L 236.578125 403.09375 L 236.578125 389.65625 L 234.917969 389.65625 L 234.917969 403.082031 L 195.355469 403.023438 L 195.355469 389.65625 L 193.699219 389.65625 L 193.699219 403.023438 L 154.136719 403.164062 L 154.136719 389.65625 L 152.476562 389.65625 L 152.476562 403.164062 L 142.417969 403.199219 C 143.375 215.304688 296.59375 62.679688 485.027344 62.175781 Z M 652.910156 389.65625 L 652.910156 403.234375 L 613.347656 403.292969 L 613.347656 389.65625 L 611.679688 389.65625 L 611.679688 403.304688 C 598.5 403.386719 585.308594 403.480469 572.117188 403.699219 L 572.117188 389.65625 L 570.457031 389.65625 L 570.457031 403.734375 C 557 403.96875 543.527344 404.332031 530.066406 404.960938 C 543.527344 405.59375 557 405.957031 570.457031 406.1875 L 570.457031 420.28125 L 572.117188 420.28125 L 572.117188 406.222656 C 585.308594 406.445312 598.5 406.539062 611.679688 406.621094 L 611.679688 420.28125 L 613.347656 420.28125 L 613.347656 406.632812 L 652.910156 406.691406 L 652.910156 420.28125 L 654.570312 420.28125 L 654.570312 406.703125 L 673.402344 406.726562 C 672.457031 508.199219 590.15625 590.578125 488.554688 591.96875 L 488.53125 574.023438 L 502.132812 574.023438 L 502.132812 572.363281 L 488.53125 572.363281 L 488.460938 532.886719 L 502.132812 532.886719 L 502.132812 531.226562 L 488.449219 531.226562 C 488.371094 518.070312 488.277344 504.914062 488.054688 491.761719 L 502.132812 491.761719 L 502.132812 490.101562 L 488.019531 490.101562 C 487.785156 476.664062 487.410156 463.230469 486.792969 449.804688 C 486.160156 463.230469 485.800781 476.664062 485.566406 490.101562 L 471.453125 490.101562 L 471.453125 491.761719 L 485.53125 491.761719 C 485.308594 504.914062 485.214844 518.070312 485.132812 531.226562 L 471.453125 531.226562 L 471.453125 532.886719 L 485.121094 532.886719 L 485.050781 572.363281 L 471.453125 572.363281 L 471.453125 574.023438 L 485.050781 574.023438 L 485.027344 592.003906 C 382.667969 591.503906 299.480469 508.757812 298.523438 406.726562 L 317.355469 406.703125 L 317.355469 420.28125 L 319.015625 420.28125 L 319.015625 406.691406 L 358.578125 406.632812 L 358.578125 420.28125 L 360.234375 420.28125 L 360.234375 406.621094 C 373.425781 406.539062 386.617188 406.445312 399.808594 406.222656 L 399.808594 420.28125 L 401.464844 420.28125 L 401.464844 406.1875 C 414.925781 405.957031 428.398438 405.59375 441.855469 404.960938 C 428.398438 404.332031 414.925781 403.96875 401.464844 403.734375 L 401.464844 389.65625 L 399.808594 389.65625 L 399.808594 403.699219 C 386.617188 403.480469 373.425781 403.386719 360.234375 403.304688 L 360.234375 389.65625 L 358.578125 389.65625 L 358.578125 403.292969 L 319.015625 403.234375 L 319.015625 389.65625 L 317.355469 389.65625 L 317.355469 403.222656 L 298.523438 403.1875 C 299.480469 301.175781 382.667969 218.421875 485.027344 217.917969 L 485.050781 235.914062 L 471.453125 235.914062 L 471.453125 237.570312 L 485.050781 237.570312 L 485.121094 277.039062 L 471.453125 277.039062 L 471.453125 278.699219 L 485.132812 278.699219 C 485.214844 291.855469 485.308594 305.007812 485.53125 318.164062 L 471.453125 318.164062 L 471.453125 319.824219 L 485.566406 319.824219 C 485.800781 333.261719 486.160156 346.695312 486.792969 360.121094 C 487.410156 346.695312 487.785156 333.261719 488.019531 319.824219 L 502.132812 319.824219 L 502.132812 318.164062 L 488.054688 318.164062 C 488.277344 305.007812 488.371094 291.855469 488.449219 278.699219 L 502.132812 278.699219 L 502.132812 277.039062 L 488.460938 277.039062 L 488.53125 237.570312 L 502.132812 237.570312 L 502.132812 235.914062 L 488.53125 235.914062 L 488.554688 217.953125 C 590.15625 219.34375 672.457031 301.726562 673.402344 403.1875 L 654.570312 403.222656 L 654.570312 389.65625 Z M 829.507812 403.199219 L 819.449219 403.164062 L 819.449219 389.65625 L 817.789062 389.65625 L 817.789062 403.164062 L 778.226562 403.023438 L 778.226562 389.65625 L 776.570312 389.65625 L 776.570312 403.023438 L 737.007812 403.082031 L 737.007812 389.65625 L 735.347656 389.65625 L 735.347656 403.09375 L 695.789062 403.152344 L 695.789062 389.65625 L 694.128906 389.65625 L 694.128906 403.164062 L 676.71875 403.1875 C 675.773438 299.890625 591.980469 216.027344 488.566406 214.636719 L 488.589844 196.433594 L 502.132812 196.433594 L 502.132812 194.773438 L 488.601562 194.773438 L 488.660156 155.308594 L 502.132812 155.308594 L 502.132812 153.648438 L 488.660156 153.648438 L 488.730469 114.167969 L 502.132812 114.167969 L 502.132812 112.511719 L 488.730469 112.511719 L 488.589844 73.054688 L 502.132812 73.054688 L 502.132812 71.394531 L 488.589844 71.394531 L 488.554688 62.210938 C 676.230469 63.613281 828.550781 215.851562 829.507812 403.199219 Z M 859.835938 403.304688 L 839.449219 403.234375 C 838.515625 210.371094 681.699219 53.648438 488.519531 52.269531 L 488.449219 31.085938 L 485.132812 31.085938 L 485.0625 52.222656 C 291.117188 52.714844 133.410156 209.824219 132.476562 403.234375 L 112.085938 403.304688 L 112.085938 406.621094 L 132.476562 406.691406 C 133.410156 600.101562 291.117188 757.210938 485.0625 757.703125 L 485.132812 778.835938 L 488.449219 778.835938 L 488.519531 757.65625 C 681.699219 756.277344 838.515625 599.554688 839.449219 406.691406 L 859.835938 406.621094 L 859.835938 403.304688 " fill-opacity="1" fill-rule="nonzero"/></g></svg>